# xmcd CD database file
#
# Track frame offsets:
#	150
#	22200
#	51030
#	332550
#
# Disc length: 4440 seconds
#
# Revision: 0
# Processed by: cddbd v1.5.1PL0 Copyright (c) Steve Scherf et al.
# Submitted via: CDex 1.51
#
DISCID=30115604
DTITLE=YUKI - ハローグッバイ
DYEAR=2004
DGENRE=JPop
TTITLE0=ハローグッバイ
TTITLE1=舞い上がれ
TTITLE2=LGCD2
TTITLE3=LGCD2
EXTD=YEAR: 2004
EXTT0=
EXTT1=
EXTT2=
EXTT3=
PLAYORDER=
